<?xml version="1.0" encoding="UTF-8" standalone="no"?>
<svg width="457px" height="437px" viewBox="0 0 457 437" version="1.1" xmlns="http://www.w3.org/2000/svg" xmlns:xlink="http://www.w3.org/1999/xlink" xmlns:sketch="http://www.bohemiancoding.com/sketch/ns">
    <title>glowing-bear</title>
    <description>Created with Sketch (http://www.bohemiancoding.com/sketch)</description>
    <defs>
        <filter x="-50%" y="-50%" width="200%" height="200%" filterUnits="objectBoundingBox" id="filter-1">
            <feOffset dx="0" dy="27" in="SourceAlpha" result="shadowOffsetInner1"></feOffset>
            <feGaussianBlur stdDeviation="6.5" in="shadowOffsetInner1" result="shadowBlurInner1"></feGaussianBlur>
            <feComposite in="shadowBlurInner1" in2="SourceAlpha" operator="arithmetic" k2="-1" k3="1" result="shadowInnerInner1"></feComposite>
            <feColorMatrix values="0 0 0 0 0   0 0 0 0 0   0 0 0 0 0  0 0 0 0.7 0" in="shadowInnerInner1" type="matrix" result="shadowMatrixInner1"></feColorMatrix>
            <feMerge>
                <feMergeNode in="SourceGraphic"></feMergeNode>
                <feMergeNode in="shadowMatrixInner1"></feMergeNode>
            </feMerge>
        </filter>
        <path d="M412.43975,168.568132 C428.929405,150.665226 439,126.75867 439,100.5 C439,44.9953799 394.00462,0 338.5,0 C312.24133,0 288.334774,10.0705946 270.431868,26.5602497 C254.17316,22.2798026 237.102819,20 219.5,20 C201.897181,20 184.82684,22.2798026 168.568132,26.5602497 C150.665226,10.0705946 126.75867,0 100.5,0 C44.9953799,0 0,44.9953799 0,100.5 C0,126.75867 10.0705946,150.665226 26.5602497,168.568132 C22.2798026,184.82684 20,201.897181 20,219.5 C20,329.680813 109.319187,419 219.5,419 C329.680813,419 419,329.680813 419,219.5 C419,201.897181 416.720197,184.82684 412.43975,168.568132 Z M404.819527,145.485732 C413.761327,132.571077 419,116.897318 419,100 C419,55.8172178 383.182782,20 339,20 C322.102682,20 306.428923,25.2386726 293.514268,34.1804726 C344.163467,54.4272495 384.57275,94.8365327 404.819524,145.485738 Z M145.187218,34.3000815 C132.526473,25.8957877 117.334973,21 101,21 C56.8172178,21 21,56.8172178 21,101 C21,117.334973 25.8957877,132.526473 34.3000815,145.187218 C54.5461785,94.7772378 94.7772378,54.5461785 145.187225,34.3000863 Z" id="path-2"></path>
        <filter x="-50%" y="-50%" width="200%" height="200%" filterUnits="objectBoundingBox" id="filter-4">
            <feOffset dx="0" dy="12" in="SourceAlpha" result="shadowOffsetOuter1"></feOffset>
            <feGaussianBlur stdDeviation="0" in="shadowOffsetOuter1" result="shadowBlurOuter1"></feGaussianBlur>
            <feColorMatrix values="0 0 0 0 0   0 0 0 0 0   0 0 0 0 0  0 0 0 0.7 0" in="shadowBlurOuter1" type="matrix" result="shadowMatrixOuter1"></feColorMatrix>
            <feOffset dx="0" dy="-21" in="SourceAlpha" result="shadowOffsetInner1"></feOffset>
            <feGaussianBlur stdDeviation="0" in="shadowOffsetInner1" result="shadowBlurInner1"></feGaussianBlur>
            <feComposite in="shadowBlurInner1" in2="SourceAlpha" operator="arithmetic" k2="-1" k3="1" result="shadowInnerInner1"></feComposite>
            <feColorMatrix values="0 0 0 0 0.799641927   0 0 0 0 0.744202558   0 0 0 0 0.670283399  0 0 0 0.7 0" in="shadowInnerInner1" type="matrix" result="shadowMatrixInner1"></feColorMatrix>
            <feMerge>
                <feMergeNode in="shadowMatrixOuter1"></feMergeNode>
                <feMergeNode in="SourceGraphic"></feMergeNode>
                <feMergeNode in="shadowMatrixInner1"></feMergeNode>
            </feMerge>
        </filter>
        <path id="path-5" d="M219,390 C263.182782,390 299,354.182782 299,310 C299,265.817218 263.182782,230 219,230 C174.817218,230 139,265.817218 139,310 C139,354.182782 174.817218,390 219,390 Z"></path>
        <filter x="-50%" y="-50%" width="200%" height="200%" filterUnits="objectBoundingBox" id="filter-7">
            <feGaussianBlur stdDeviation="11.6761364" in="SourceGraphic" result="blur"></feGaussianBlur>
        </filter>
        <filter x="-50%" y="-50%" width="200%" height="200%" filterUnits="objectBoundingBox" id="filter-8">
            <feGaussianBlur stdDeviation="24.9928977" in="SourceGraphic" result="blur"></feGaussianBlur>
        </filter>
        <filter x="-50%" y="-50%" width="200%" height="200%" filterUnits="objectBoundingBox" id="filter-9">
            <feOffset dx="0" dy="-10" in="SourceAlpha" result="shadowOffsetInner1"></feOffset>
            <feGaussianBlur stdDeviation="0" in="shadowOffsetInner1" result="shadowBlurInner1"></feGaussianBlur>
            <feComposite in="shadowBlurInner1" in2="SourceAlpha" operator="arithmetic" k2="-1" k3="1" result="shadowInnerInner1"></feComposite>
            <feColorMatrix values="0 0 0 0 0   0 0 0 0 0   0 0 0 0 0  0 0 0 0.7 0" in="shadowInnerInner1" type="matrix" result="shadowMatrixInner1"></feColorMatrix>
            <feMerge>
                <feMergeNode in="SourceGraphic"></feMergeNode>
                <feMergeNode in="shadowMatrixInner1"></feMergeNode>
            </feMerge>
        </filter>
    </defs>
    <g id="Page-1" stroke="none" stroke-width="1" fill="none" fill-rule="evenodd" sketch:type="MSPage">
        <g id="smalleyes-copy" sketch:type="MSLayerGroup" transform="translate(9.000000, 9.000000)">
            <path d="M99,194 C151.467054,194 194,151.467054 194,99 C194,46.5329462 151.467054,4 99,4 C46.5329462,4 4,46.5329462 4,99 C4,151.467054 46.5329462,194 99,194 Z M339,194 C391.467054,194 434,151.467054 434,99 C434,46.5329462 391.467054,4 339,4 C286.532946,4 244,46.5329462 244,99 C244,151.467054 286.532946,194 339,194 Z" id="Path" fill="#907B62" filter="url(#filter-1)" sketch:type="MSShapeGroup"></path>
            <mask id="mask-3" sketch:name="Oval 2" fill="white">
                <use xlink:href="#path-2"></use>
            </mask>
            <use id="Oval-2" stroke="#000000" stroke-width="9" fill="#907B62" sketch:type="MSShapeGroup" xlink:href="#path-2"></use>
            <path d="M416.042773,172.705747 C416.675912,178.230264 417,183.83265 417,189.5 C417,283.11227 328.576243,359 219.5,359 C110.423757,359 22,283.11227 22,189.5 C22,182.430104 22.5043471,175.461304 23.4838477,168.618655 C-19.0938504,135.854737 -45,92.5196696 -45,45 C-45,-57.1726838 74.7638221,-140 222.5,-140 C370.236178,-140 490,-57.1726838 490,45 C490,94.523079 461.863419,139.501275 416.042773,172.705747 Z" id="Oval-1-copy" fill="#BEAA90" sketch:type="MSShapeGroup" mask="url(#mask-3)"></path>
            <path d="M408.22706,154.661565 C419.983764,139.763619 427,120.951175 427,100.5 C427,52.175082 387.824918,13 339.5,13 C319.311734,13 300.720336,19.8370019 285.91493,31.3218822 C343.193403,51.5375564 388.477901,97.1645735 408.227058,154.661567 Z M153.772628,31.0806364 C139.018494,19.7413227 120.546508,13 100.5,13 C52.175082,13 13,52.175082 13,100.5 C13,120.546508 19.7413227,139.018494 31.0806364,153.772628 C51.0696744,96.4650894 96.4650894,51.0696744 153.772631,31.0806386 Z" id="Oval-2-copy" fill="#907B62" sketch:type="MSShapeGroup" mask="url(#mask-3)"></path>
            <mask id="mask-6" sketch:name="Oval 63" fill="white">
                <use xlink:href="#path-5"></use>
            </mask>
            <use id="Oval-63" fill="#D9CDBD" filter="url(#filter-4)" sketch:type="MSShapeGroup" xlink:href="#path-5"></use>
            <path d="M121.353143,210.466662 C155.494975,219.614939 188.386871,207.570395 194.819253,183.564419 C201.251635,159.558443 178.788689,132.681614 144.646857,123.533338 C110.505025,114.385061 77.613129,126.429605 71.1807471,150.435581 C64.7483653,174.441557 87.2113107,201.318386 121.353143,210.466662 Z M317.646857,210.466662 C351.788689,201.318386 374.251635,174.441557 367.819253,150.435581 C361.386871,126.429605 328.494975,114.385061 294.353143,123.533338 C260.211311,132.681614 237.748365,159.558443 244.180747,183.564419 C250.613129,207.570395 283.505025,219.614939 317.646857,210.466662 Z" id="Oval-4-copy" fill="#F6A623" filter="url(#filter-7)" sketch:type="MSShapeGroup"></path>
            <path d="M121.353143,210.466662 C155.494975,219.614939 188.386871,207.570395 194.819253,183.564419 C201.251635,159.558443 178.788689,132.681614 144.646857,123.533338 C110.505025,114.385061 77.613129,126.429605 71.1807471,150.435581 C64.7483653,174.441557 87.2113107,201.318386 121.353143,210.466662 Z M317.646857,210.466662 C351.788689,201.318386 374.251635,174.441557 367.819253,150.435581 C361.386871,126.429605 328.494975,114.385061 294.353143,123.533338 C260.211311,132.681614 237.748365,159.558443 244.180747,183.564419 C250.613129,207.570395 283.505025,219.614939 317.646857,210.466662 Z" id="Oval-4-copy-3" fill="#FFFFFF" filter="url(#filter-8)" sketch:type="MSShapeGroup"></path>
            <path d="M121.353143,210.466662 C155.494975,219.614939 188.386871,207.570395 194.819253,183.564419 C201.251635,159.558443 178.788689,132.681614 144.646857,123.533338 C110.505025,114.385061 77.613129,126.429605 71.1807471,150.435581 C64.7483653,174.441557 87.2113107,201.318386 121.353143,210.466662 Z M317.646857,210.466662 C351.788689,201.318386 374.251635,174.441557 367.819253,150.435581 C361.386871,126.429605 328.494975,114.385061 294.353143,123.533338 C260.211311,132.681614 237.748365,159.558443 244.180747,183.564419 C250.613129,207.570395 283.505025,219.614939 317.646857,210.466662 Z" id="Oval-4-copy" fill="#FFFFFF" sketch:type="MSShapeGroup"></path>
            <path d="M220.000002,328.000001 C200.000002,328.000001 160,288 180,268 C200,248 239.999999,248.000003 260,268 C280,288 240.000002,328.000001 220.000002,328.000001 Z" id="Path-1" stroke="#979797" fill="#4A4A4A" filter="url(#filter-9)" sketch:type="MSShapeGroup"></path>
        </g>
    </g>
</svg>